#!OML:ASF G:\JayActor3\Patient Classification 1\Patient 1\Session 2\male.ASF
:FULLY-SPECIFIED
:DEGREES
3265
root 16.959 16.4819 -4.14146 2966.01 84.1823 90.4002
lowerback 0.379974 -4.53979 -4.22292
upperback -0.947384 -6.03003 4.41593
thorax -0.275114 -2.98223 6.94372
lowerneck -5.72427 6.97477 7.44177
upperneck 12.4765 9.73719 -7.19857
head 5.41097 4.73298 -2.77976
rclavicle 4.17448e-015 1.59028e-014
rhumerus -52.6507 -11.1093 -53.5661
rradius 12.6556
rwrist 17.4379
rhand -15.2923 -1.98062
rfingers 7.12502
rthumb 10.8828 -31.6786
lclavicle 4.17448e-015 1.59028e-014
lhumerus -21.8334 -7.92479 83.0795
lradius 51.366
lwrist 12.9229
lhand -14.6736 19.8361
lfingers 7.12502
lthumb 11.4796 49.5018
rfemur -26.8952 4.73937 14.5375
rtibia 42.1309
rfoot -16.4481 -3.70556
rtoes 11.2457
lfemur 19.4014 11.8951 -19.9118
ltibia 35.2364
lfoot 21.48 -2.19351
ltoes -3.3278
3266
root 17.1604 16.4655 -4.11957 2969.95 84.5237 94.7763
lowerback 0.826412 -4.40609 -3.77983
upperback -0.795781 -5.85472 4.38615
thorax -0.441845 -2.89313 6.69762
lowerneck -5.46663 7.0871 7.59623
upperneck 11.7773 9.84801 -7.27902
head 5.17146 4.7966 -2.83695
rclavicle 2.10712e-014 -1.74931e-014
rhumerus -52.2108 -11.4759 -54.5126
rradius 12.6255
rwrist 17.7395
rhand -15.446 -1.85368
rfingers 7.12502
rthumb 10.7346 -31.5594
lclavicle 2.10712e-014 -1.74931e-014
lhumerus -22.4445 -8.26716 83.7858
lradius 50.3684
lwrist 12.7485
lhand -14.5245 20
lfingers 7.12502
lthumb 11.6233 49.6576
rfemur -25.8897 4.12445 15.0991
rtibia 42.7206
rfoot -16.459 -3.52185
rtoes 12.4716
lfemur 17.713 12.2083 -18.8514
ltibia 39.5572
lfoot 22.2605 -1.60865
ltoes -3.75326
3267
root 17.361 16.4512 -4.09486 2974.01 84.8561 99.2921
lowerback 1.29559 -4.25236 -3.35098
upperback -0.647056 -5.64934 4.34751
thorax -0.625428 -2.78845 6.45064
lowerneck -5.19418 7.19588 7.72209
upperneck 11.1377 9.95662 -7.30385
head 4.94472 4.8611 -2.87325
rclavicle 2.82274e-014 1.59028e-015
rhumerus -51.7308 -11.9746 -55.3826
rradius 12.5376
rwrist 18.3059
rhand -15.6235 -1.73194
rfingers 7.12502
rthumb 10.5633 -31.4465
lclavicle 2.82274e-014 1.59028e-015
lhumerus -23.0452 -8.56418 84.4847
lradius 49.2916
lwrist 12.4819
lhand -14.4498 20.067
lfingers 7.12502
lthumb 11.6954 49.7206
rfemur -24.8147 3.62611 15.6897
rtibia 43.2018
rfoot -16.5652 -3.45246
rtoes 13.6843
lfemur 16.0983 12.5363 -17.7759
ltibia 43.6544
lfoot 22.6511 -0.896247
ltoes -4.54819
3268
root 17.5604 16.4398 -4.06733 2978.3 85.2049 104.042
lowerback 1.77482 -4.08181 -2.9145
upperback -0.503442 -5.41693 4.31142
thorax -0.82087 -2.66992 6.20055
lowerneck -4.92521 7.30062 7.83508
upperneck 10.5866 10.0643 -7.29009
head 4.74405 4.92608 -2.89532
rclavicle -2.49475e-014 3.97569e-014
rhumerus -51.2054 -12.6242 -56.1461
rradius 12.3872
rwrist 19.1537
rhand -15.8211 -1.60514
rfingers 7.12502
rthumb 10.3728 -31.3293
lclavicle -2.49475e-014 3.97569e-014
lhumerus -23.6282 -8.77412 85.1756
lradius 48.1047
lwrist 12.1201
lhand -14.4579 20.0197
lfingers 7.12502
lthumb 11.6876 49.6737
rfemur -23.6693 3.2533 16.3356
rtibia 43.5516
rfoot -16.7411 -3.48659
rtoes 14.8268
lfemur 14.513 12.8631 -16.6662
ltibia 47.5589
lfoot 22.5912 -0.206043
ltoes -5.49246
3269
root 17.7587 16.4314 -4.03761 2982.87 85.5734 109.061
lowerback 2.22811 -3.89674 -2.46621
upperback -0.361083 -5.15986 4.28523
thorax -1.00269 -2.53951 5.9488
lowerneck -4.68575 7.40049 7.91585
upperneck 10.1402 10.1699 -7.2313
head 4.57692 4.98985 -2.89696
rclavicle -3.37934e-015 -7.95139e-015
rhumerus -50.6228 -13.4434 -56.7707
rradius 12.1642
rwrist 20.3315
rhand -16.0763 -1.43227
rfingers 7.12502
rthumb 10.1266 -31.1686
lclavicle -3.37934e-015 -7.95139e-015
lhumerus -24.1751 -8.83411 85.8543
lradius 46.7785
lwrist 11.6592
lhand -14.5532 19.8877
lfingers 7.12502
lthumb 11.5957 49.5469
rfemur -22.4686 2.98594 17.0373
rtibia 43.7621
rfoot -16.9641 -3.56751
rtoes 15.8959
lfemur 12.9214 13.1889 -15.5325
ltibia 51.2822
lfoot 22.0766 0.306151
ltoes -6.35635
3270
root 17.9553 16.4269 -4.00643 2988.07 85.9574 114.672
lowerback 2.62007 -3.70578 -2.00548
upperback -0.229344 -4.88957 4.27523
thorax -1.15831 -2.40303 5.69916
lowerneck -4.4785 7.49502 7.96741
upperneck 9.80636 10.2733 -7.13303
head 4.44618 5.05212 -2.88
rclavicle 1.72943e-014 2.22639e-014
rhumerus -49.9875 -14.4612 -57.2124
rradius 11.8691
rwrist 21.8713
rhand -16.3676 -1.25302
rfingers 7.12502
rthumb 9.84551 -31.0028
lclavicle 1.72943e-014 2.22639e-014
lhumerus -24.6835 -8.69499 86.5131
lradius 45.284
lwrist 11.0917
lhand -14.7325 19.7405
lfingers 7.12502
lthumb 11.4227 49.4094
rfemur -21.2495 2.79212 17.7896
rtibia 43.8365
rfoot -17.2287 -3.65351
rtoes 16.8441
lfemur 11.2799 13.5034 -14.3903
ltibia 54.8212
lfoot 21.1858 0.531274
ltoes -6.9787
3271
root 18.1492 16.4266 -3.97475 2994.44 86.3253 121.391
lowerback 2.92424 -3.51948 -1.54514
upperback -0.114343 -4.62157 4.28175
thorax -1.27624 -2.26833 5.45823
lowerneck -4.31871 7.58968 7.97617
upperneck 9.58315 10.3798 -6.98337
head 4.35252 5.11523 -2.8376
rclavicle 6.20208e-014 4.92986e-014
rhumerus -49.301 -15.7013 -57.4444
rradius 11.5029
rwrist 23.7953
rhand -16.7187 -1.03551
rfingers 7.12502
rthumb 9.50673 -30.8011
lclavicle 6.20208e-014 4.92986e-014
lhumerus -25.1387 -8.31181 87.1363
lradius 43.5956
lwrist 10.4398
lhand -15.0171 19.6029
lfingers 7.12502
lthumb 11.1483 49.2868
rfemur -20.0503 2.6273 18.5659
rtibia 43.7887
rfoot -17.5353 -3.72103
rtoes 17.6314
lfemur 9.54001 13.7954 -13.2817
ltibia 58.1624
lfoot 20.0495 0.366391
ltoes -7.47592
3272
root 18.34 16.4309 -3.9436 3002.2 86.6234 129.409
lowerback 3.12749 -3.34163 -1.11186
upperback -0.0282141 -4.36385 4.29293
thorax -1.36003 -2.13918 5.22941
lowerneck -4.18941 7.68237 7.95496
upperneck 9.46311 10.4866 -6.78961
head 4.29137 5.17857 -2.77479
rclavicle -5.64548e-014 7.4743e-014
rhumerus -48.5953 -17.1761 -57.4528
rradius 11.084
rwrist 26.0907
rhand -17.1197 -0.811656
rfingers 7.12502
rthumb 9.1198 -30.5945
lclavicle -5.64548e-014 7.4743e-014
lhumerus -25.5496 -7.65698 87.7073
lradius 41.6943
lwrist 9.74074
lhand -15.4489 19.4797
lfingers 7.12502
lthumb 10.7318 49.1856
rfemur -18.8999 2.46842 19.321
rtibia 43.637
rfoot -17.8922 -3.75781
rtoes 18.2476
lfemur 7.68562 14.0583 -12.271
ltibia 61.2811
lfoot 18.818 -0.119995
ltoes -7.8548
3273
root 18.5275 16.44 -3.91368 3010.96 86.7941 138.344
lowerback 3.22205 -3.17275 -0.738646
upperback 0.0241339 -4.12092 4.29184
thorax -1.40944 -2.01788 5.01457
lowerneck -4.07961 7.77031 7.91626
upperneck 9.42759 10.5889 -6.55948
head 4.2558 5.24027 -2.69679
rclavicle -7.95139e-016 -1.59028e-015
rhumerus -47.9045 -18.9023 -57.2379
rradius 10.6372
rwrist 28.7395
rhand -17.5858 -0.591215
rfingers 7.12502
rthumb 8.6701 -30.3932
lclavicle -7.95139e-016 -1.59028e-015
lhumerus -25.9205 -6.71441 88.1959
lradius 39.5731
lwrist 8.99631
lhand -16.0301 19.3943
lfingers 7.12502
lthumb 10.1711 49.1284
rfemur -17.818 2.31126 20.006
rtibia 43.3997
rfoot -18.2899 -3.78456
rtoes 18.6208
lfemur 5.70659 14.2883 -11.4296
ltibia 64.1514
lfoot 17.6073 -0.771157
ltoes -8.40961
3274
root 18.7124 16.454 -3.8853 3019.61 86.8088 147.082
lowerback 3.21179 -3.0088 -0.448339
upperback 0.0429035 -3.89058 4.26165
thorax -1.42706 -1.90343 4.81034
lowerneck -3.9825 7.85251 7.8682
upperneck 9.46381 10.684 -6.29117
head 4.24082 5.29955 -2.60487
rclavicle -1.19271e-014 4.77083e-015
rhumerus -47.2638 -20.8645 -56.8322
rradius 10.1944
rwrist 31.685
rhand -18.077 -0.407579
rfingers 7.12502
rthumb 8.19601 -30.2286
lclavicle -1.19271e-014 4.77083e-015
lhumerus -26.2598 -5.48566 88.5712
lradius 37.2405
lwrist 8.20369
lhand -16.788 19.3374
lfingers 7.12502
lthumb 9.43992 49.106
rfemur -16.7974 2.16026 20.5873
rtibia 43.0892
rfoot -18.7239 -3.80804
rtoes 18.8199
lfemur 3.62238 14.4859 -10.8088
ltibia 66.7449
lfoot 16.4677 -1.43647
ltoes -9.1737
3275
root 18.8955 16.4729 -3.85859 3026.86 86.6857 154.334
lowerback 3.1077 -2.84157 -0.250024
upperback 0.0309231 -3.66337 4.1915
thorax -1.41775 -1.79114 4.61179
lowerneck -3.90487 7.92699 7.8187
upperneck 9.56869 10.7679 -5.98784
head 4.24695 5.3546 -2.50116
rclavicle -1.8487e-014 2.70347e-014
rhumerus -46.0313 -21.4779 -58.0417
rradius 9.77699
rwrist 32.6822
rhand -18.7606 -0.647223
rfingers 7.12502
rthumb 7.53619 -30.493
lclavicle -1.8487e-014 2.70347e-014
lhumerus -26.5745 -3.95757 88.794
lradius 34.7075
lwrist 7.32522
lhand -17.6938 19.296
lfingers 7.12502
lthumb 8.56586 49.1023
rfemur -15.8271 2.02815 21.0525
rtibia 42.7083
rfoot -19.1712 -3.86184
rtoes 18.8167
lfemur 1.46335 14.6618 -10.4351
ltibia 69.0415
lfoot 15.4342 -2.00336
ltoes -9.96043
3276
root 19.0774 16.4965 -3.83358 3032.26 86.4576 159.702
lowerback 2.94485 -2.66908 -0.138707
upperback -0.00347979 -3.43587 4.081
thorax -1.39375 -1.67914 4.41821
lowerneck -3.85388 7.99487 7.77681
upperneck 9.73659 10.8412 -5.66018
head 4.27483 5.40573 -2.38983
rclavicle -3.12092e-014 -1.59028e-014
rhumerus -44.7686 -22.0729 -59.2632
rradius 9.41887
rwrist 33.6183
rhand -19.4109 -0.926519
rfingers 7.12502
rthumb 6.90849 -30.7938
lclavicle -3.12092e-014 -1.59028e-014
lhumerus -26.8777 -2.13064 88.8359
lradius 32.0082
lwrist 6.34934
lhand -18.7518 19.2444
lfingers 7.12502
lthumb 7.54474 49.0898
rfemur -14.865 1.91306 21.4105
rtibia 42.2496
rfoot -19.6181 -3.93604
rtoes 18.7629
lfemur -0.721535 14.8105 -10.2977
ltibia 71.0295
lfoot 14.4309 -2.42656
ltoes -10.8328
3277
root 19.2584 16.5245 -3.81064 3036.17 86.1741 163.56
lowerback 2.75352 -2.48716 -0.0763695
upperback -0.0536961 -3.19957 3.93843
thorax -1.36794 -1.56298 4.21847
lowerneck -3.8281 8.05714 7.73942
upperneck 9.95235 10.9052 -5.31363
head 4.3199 5.45337 -2.27219
rclavicle 4.96962e-015 2.06736e-014
rhumerus -43.52 -22.6574 -60.4499
rradius 9.15614
rwrist 34.5041
rhand -20.0344 -1.15115
rfingers 7.12502
rthumb 6.30662 -31.0373
lclavicle 4.96962e-015 2.06736e-014
lhumerus -27.1817 0.0222565 88.6577
lradius 29.1768
lwrist 5.21449
lhand -19.9177 19.1716
lfingers 7.12502
lthumb 6.41922 49.0543
rfemur -13.8749 1.80452 21.6968
rtibia 41.6974
rfoot -20.0393 -4.01166
rtoes 18.7447
lfemur -2.88884 14.935 -10.3525
ltibia 72.7056
lfoot 13.4529 -2.70088
ltoes -11.6501
